# xmcd
#
# Track frame offsets:
#	150
#	12242
#	25734
#	36990
#	48755
#	65250
#	75705
#	91616
#	100224
#	112744
#	122356
#	134915
#	146039
#	161682
#	177863
#	192193
#	206176
#	216777
#	226954
#	241993
#
# Disc length: 3487 seconds
#
# Revision: 1
# Processed by: cddbd v1.5.2PL0 Copyright (c) Steve Scherf et al.
# Submitted via: EasyCDDAExtractor 12.0.0.1
#
DISCID=0a0d9d14
DTITLE=Beatles - PanPipes Vol 2
DYEAR=2000
DGENRE=Pop
TTITLE0=Love Me Do
TTITLE1=Penny Lane
TTITLE2=Paperback Writer
TTITLE3=Yellow Submarine
TTITLE4=The Long and Winding Road
TTITLE5=I Feel Fine
TTITLE6=Get Back
TTITLE7=From Me To You
TTITLE8=Eight Days A Week
TTITLE9=Can't Buy Me Love
TTITLE10=Back In The USSR
TTITLE11=And I Love Her
TTITLE12=All You Need Is Love
TTITLE13=Hello, Goodbye
TTITLE14=Here Comes The Sun
TTITLE15=Michelle
TTITLE16=Norwegian Wood
TTITLE17=You've Got To Hide Your Love Away
TTITLE18=Revolution
TTITLE19=While My Guitar Gently Weeps
EXTD=
EXTT0=
EXTT1=
EXTT2=
EXTT3=
EXTT4=
EXTT5=
EXTT6=
EXTT7=
EXTT8=
EXTT9=
EXTT10=
EXTT11=
EXTT12=
EXTT13=
EXTT14=
EXTT15=
EXTT16=
EXTT17=
EXTT18=
EXTT19=
PLAYORDER=
